<svg width="2279" height="751" viewBox="0 0 2279 751" fill="none" xmlns="http://www.w3.org/2000/svg">
<path d="M374.791 37.6781C291.29 -8.82162 206.79 29.1785 178.79 103.678C106.79 120.178 64.2902 173.679 79.7905 250.678C-7.70951 306.678 -4.20936 429.178 70.2906 496.678C50.2906 559.678 103.291 644.178 173.291 649.678C226.791 771.678 355.678 743.178 373.291 697.678C385.791 676.178 390.791 673.678 404.791 666.178C425.291 656.678 518.291 667.178 546.79 660.678C622.79 635.678 695.29 583.178 691.79 485.178C770.29 403.678 731.29 286.678 680.29 252.178C686.29 161.678 640.79 122.178 578.79 108.678C533.79 9.67813 424.29 -4.82175 374.791 37.6781ZM374.791 37.6781V154.178" stroke="#89C5D5" stroke-width="22" stroke-linecap="round"/>
<circle cx="234.791" cy="233.178" r="35" stroke="#FF9696" stroke-width="22"/>
<circle cx="133.791" cy="391.178" r="35" stroke="#FF9696" stroke-width="22"/>
<circle cx="495.791" cy="179.178" r="35" stroke="#FF9696" stroke-width="22"/>
<circle cx="374.791" cy="349.178" r="35" stroke="#FF9696" stroke-width="22"/>
<line x1="148.874" y1="367.49" x2="216.161" y2="262.032" stroke="#FF9696" stroke-width="22"/>
<line x1="350.428" y1="325.944" x2="266.073" y2="260.889" stroke="#FF9696" stroke-width="22"/>
<line x1="394.866" y1="321.024" x2="476.819" y2="202.183" stroke="#FF9696" stroke-width="22"/>
<path d="M495.291 409.178C528.791 407.678 559.791 380.178 563.791 341.678" stroke="#89C5D5" stroke-width="22" stroke-linecap="round"/>
<path d="M168.527 587.222C204.291 598.678 241.291 575.678 260.054 533.097" stroke="#89C5D5" stroke-width="22" stroke-linecap="round"/>
<path d="M374.791 689.178V469.178" stroke="#89C5D5" stroke-width="22" stroke-linecap="round"/>
<rect x="418.791" y="545.178" width="55" height="113" rx="7" fill="#89C5D5"/>
<path d="M586.791 423.178C586.791 419.312 589.925 416.178 593.791 416.178H634.791C638.657 416.178 641.791 419.312 641.791 423.178V605.178C641.791 621.747 628.359 635.178 611.791 635.178H593.791C589.925 635.178 586.791 632.044 586.791 628.178V423.178Z" fill="#89C5D5"/>
<rect x="502.791" y="492.178" width="55" height="166" rx="7" fill="#89C5D5"/>
<mask id="path-15-inside-1_11_111" fill="white">
<path d="M829.479 4.495H2278.48V746.495H829.479V4.495Z"/>
</mask>
<path d="M2278.48 746.495V733.495H829.479V746.495V759.495H2278.48V746.495Z" fill="#89C5D5" mask="url(#path-15-inside-1_11_111)"/>
<path d="M883.616 271.495V236.222H933.245C946.005 236.222 956.624 233.943 965.1 229.386C973.577 224.828 979.957 217.856 984.241 208.468C988.525 198.988 990.667 186.957 990.667 172.374C990.667 157.791 988.525 145.805 984.241 136.417C980.048 126.938 973.713 119.965 965.237 115.499C956.76 111.033 946.187 108.8 933.518 108.8H882.659V73.5262H935.569C955.439 73.5262 972.574 77.4911 986.975 85.4208C1001.47 93.2593 1012.54 104.607 1020.2 119.464C1027.95 134.321 1031.82 151.957 1031.82 172.374C1031.82 192.882 1027.95 210.564 1020.2 225.421C1012.45 240.278 1001.29 251.671 986.702 259.6C972.21 267.53 954.983 271.495 935.022 271.495H883.616ZM906.311 271.495H865.295V73.5262H906.311V271.495ZM1061.74 271.495L1130.1 73.5262H1182.87L1251.37 271.495H1207.21L1157.3 118.233H1155.66L1105.63 271.495H1061.74ZM1209.12 193.702V225.831H1103.44V193.702H1209.12ZM1346.78 73.5262L1401.87 207.647H1404.2L1459.16 73.5262H1509.88V271.495H1469.96V141.749H1468.32L1416.64 270.538H1389.16L1337.61 141.475H1335.97V271.495H1296.19V73.5262H1346.78ZM1606.79 271.495H1565.78V73.5262H1606.79V271.495ZM1750.03 73.5262H1791.05V237.589H1876.22V271.495H1750.03V73.5262ZM2011.41 207.374C2007.77 207.465 2001.34 207.83 1992.14 208.468L1979.01 209.561C1971.81 210.108 1966.16 212.068 1962.06 215.44C1957.96 218.722 1955.91 223.188 1955.91 228.839C1955.91 232.485 1956.82 235.584 1958.64 238.136C1960.55 240.688 1963.2 242.647 1966.57 244.015C1970.03 245.382 1973.91 246.065 1978.19 246.065C1984.3 246.065 1989.72 244.88 1994.46 242.511C1999.2 240.05 2002.89 236.723 2005.54 232.53C2008.18 228.246 2009.5 223.552 2009.5 218.448L2009.23 170.46C2009.23 166.267 2008.32 162.712 2006.49 159.796C2004.76 156.788 2002.07 154.555 1998.43 153.097C1994.87 151.547 1990.63 150.772 1985.71 150.772C1978.88 150.772 1973.32 152.231 1969.03 155.147C1964.75 157.973 1962.06 161.983 1960.97 167.179H1922.41C1923.32 158.429 1926.38 150.59 1931.57 143.663C1936.86 136.645 1944.15 131.13 1953.45 127.12C1962.83 123.11 1973.91 121.104 1986.67 121.104C1998.15 121.104 2008.63 122.882 2018.11 126.436C2027.59 129.991 2035.2 135.551 2040.95 143.116C2046.78 150.59 2049.7 160.024 2049.7 171.417V271.495H2011.28V250.987H2010.18C2007.72 255.636 2004.49 259.692 2000.48 263.155C1996.47 266.619 1991.64 269.353 1985.98 271.358C1980.42 273.272 1973.95 274.229 1966.57 274.229C1957 274.229 1948.52 272.543 1941.14 269.171C1933.76 265.798 1927.92 260.785 1923.64 254.132C1919.36 247.478 1917.22 239.457 1917.22 230.069C1917.22 214.574 1922.32 203.318 1932.53 196.3C1942.83 189.281 1956.13 185.271 1972.45 184.268C1975.18 183.995 1983.61 183.539 1997.74 182.901L2011.14 182.354L2011.41 207.374ZM2103.81 73.5262H2144.15V147.901H2145.51C2148.16 142.524 2151.07 138.012 2154.26 134.366C2157.45 130.72 2161.87 127.621 2167.53 125.069C2173.18 122.426 2179.88 121.104 2187.62 121.104C2198.83 121.104 2209 123.975 2218.11 129.718C2227.32 135.46 2234.61 144.073 2239.99 155.557C2245.36 167.042 2248.05 180.987 2248.05 197.393C2248.05 213.435 2245.41 227.244 2240.12 238.819C2234.93 250.304 2227.77 259.008 2218.66 264.932C2209.54 270.857 2199.2 273.819 2187.62 273.819C2180.06 273.819 2173.45 272.543 2167.8 269.991C2162.24 267.439 2157.73 264.34 2154.26 260.694C2150.89 257.048 2147.97 252.765 2145.51 247.843H2143.46V271.495H2103.81V73.5262ZM2143.33 197.12C2143.33 206.052 2144.56 213.891 2147.02 220.636C2149.57 227.289 2153.22 232.439 2157.95 236.085C2162.69 239.731 2168.35 241.554 2174.91 241.554C2181.65 241.554 2187.39 239.685 2192.13 235.948C2196.87 232.211 2200.47 227.016 2202.94 220.362C2205.4 213.617 2206.63 205.87 2206.63 197.12C2206.63 188.37 2205.4 180.714 2202.94 174.151C2200.57 167.589 2197.01 162.53 2192.27 158.975C2187.53 155.33 2181.74 153.507 2174.91 153.507C2168.25 153.507 2162.56 155.284 2157.82 158.839C2153.17 162.302 2149.57 167.315 2147.02 173.878C2144.56 180.44 2143.33 188.188 2143.33 197.12Z" fill="#FF9696"/>
<path d="M872.214 515.495V503.025H891.747C897.375 503.025 902.028 501.995 905.706 499.935C909.421 497.876 912.217 494.822 914.093 490.776C915.969 486.693 916.907 481.599 916.907 475.493C916.907 469.386 915.987 464.31 914.148 460.264C912.309 456.181 909.55 453.128 905.872 451.105C902.23 449.082 897.669 448.07 892.188 448.07H871.773V435.6H892.961C900.869 435.6 907.692 437.201 913.431 440.401C919.169 443.564 923.565 448.144 926.618 454.14C929.671 460.135 931.197 467.253 931.197 475.493C931.197 483.769 929.652 490.905 926.563 496.901C923.51 502.897 919.077 507.495 913.265 510.695C907.453 513.895 900.52 515.495 892.464 515.495H872.214ZM879.773 515.495H865.428V435.6H879.773V515.495ZM994.965 488.955C993.714 488.992 990.9 489.158 986.523 489.452L980.95 489.893C977.493 490.188 974.808 491.052 972.895 492.487C970.982 493.921 970.026 495.926 970.026 498.501C970.026 500.156 970.449 501.572 971.295 502.749C972.141 503.89 973.336 504.773 974.881 505.398C976.463 506.023 978.228 506.336 980.178 506.336C982.974 506.336 985.42 505.784 987.516 504.681C989.65 503.54 991.287 502.032 992.427 500.156C993.604 498.28 994.193 496.22 994.193 493.976L994.082 474.83C994.082 472.844 993.678 471.152 992.868 469.754C992.059 468.356 990.827 467.308 989.172 466.609C987.553 465.91 985.567 465.561 983.213 465.561C980.196 465.561 977.713 466.186 975.764 467.437C973.851 468.688 972.619 470.416 972.067 472.623H958.384C958.788 469.203 960.039 466.149 962.135 463.464C964.269 460.742 967.156 458.627 970.798 457.119C974.476 455.574 978.743 454.802 983.599 454.802C987.866 454.802 991.82 455.445 995.462 456.733C999.103 458.02 1002.12 460.209 1004.51 463.299C1006.9 466.352 1008.1 470.38 1008.1 475.382V515.495H994.634V507.219H994.193C993.273 509.021 992.022 510.621 990.441 512.019C988.896 513.417 986.946 514.557 984.592 515.44C982.238 516.286 979.553 516.709 976.536 516.709C972.674 516.709 969.235 516.01 966.218 514.612C963.202 513.214 960.811 511.155 959.046 508.432C957.317 505.71 956.452 502.455 956.452 498.666C956.452 492.413 958.531 487.925 962.687 485.203C966.844 482.445 972.214 480.863 978.799 480.458C979.755 480.348 983.194 480.164 989.116 479.907L994.855 479.686L994.965 488.955ZM1067.01 466.389H1032.69V455.574H1067.01V466.389ZM1055.26 441.228V497.508C1055.26 499.31 1055.53 500.726 1056.08 501.756C1056.64 502.749 1057.37 503.448 1058.29 503.853C1059.25 504.221 1060.39 504.423 1061.71 504.46C1063.33 504.497 1065.37 504.405 1067.84 504.184V515.716C1065.56 516.12 1062.91 516.323 1059.89 516.323C1056.29 516.323 1053.07 515.716 1050.24 514.502C1047.4 513.251 1045.18 511.394 1043.56 508.929C1041.94 506.465 1041.15 503.411 1041.19 499.77V441.228H1055.26ZM1129.45 488.955C1128.2 488.992 1125.39 489.158 1121.01 489.452L1115.44 489.893C1111.98 490.188 1109.3 491.052 1107.38 492.487C1105.47 493.921 1104.51 495.926 1104.51 498.501C1104.51 500.156 1104.94 501.572 1105.78 502.749C1106.63 503.89 1107.82 504.773 1109.37 505.398C1110.95 506.023 1112.72 506.336 1114.67 506.336C1117.46 506.336 1119.91 505.784 1122 504.681C1124.14 503.54 1125.77 502.032 1126.91 500.156C1128.09 498.28 1128.68 496.22 1128.68 493.976L1128.57 474.83C1128.57 472.844 1128.17 471.152 1127.36 469.754C1126.55 468.356 1125.31 467.308 1123.66 466.609C1122.04 465.91 1120.05 465.561 1117.7 465.561C1114.68 465.561 1112.2 466.186 1110.25 467.437C1108.34 468.688 1107.11 470.416 1106.55 472.623H1092.87C1093.28 469.203 1094.53 466.149 1096.62 463.464C1098.76 460.742 1101.64 458.627 1105.29 457.119C1108.96 455.574 1113.23 454.802 1118.09 454.802C1122.35 454.802 1126.31 455.445 1129.95 456.733C1133.59 458.02 1136.61 460.209 1139 463.299C1141.39 466.352 1142.58 470.38 1142.58 475.382V515.495H1129.12V507.219H1128.68C1127.76 509.021 1126.51 510.621 1124.93 512.019C1123.38 513.417 1121.43 514.557 1119.08 515.44C1116.73 516.286 1114.04 516.709 1111.02 516.709C1107.16 516.709 1103.72 516.01 1100.71 514.612C1097.69 513.214 1095.3 511.155 1093.53 508.432C1091.8 505.71 1090.94 502.455 1090.94 498.666C1090.94 492.413 1093.02 487.925 1097.17 485.203C1101.33 482.445 1106.7 480.863 1113.29 480.458C1114.24 480.348 1117.68 480.164 1123.6 479.907L1129.34 479.686L1129.45 488.955ZM1209.87 515.495L1238.01 435.6H1255.72L1283.86 515.495H1268.52L1247.17 451.932H1246.5L1225.15 515.495H1209.87ZM1267.86 484.155V495.687H1225.76V484.155H1267.86ZM1322.69 515.495H1308.67V455.574H1322.08V465.726H1322.74C1324.21 462.269 1326.46 459.584 1329.47 457.671C1332.49 455.758 1336.21 454.802 1340.62 454.802C1344.78 454.802 1348.38 455.684 1351.43 457.45C1354.52 459.179 1356.9 461.735 1358.55 465.12C1360.24 468.504 1361.09 472.568 1361.09 477.313V515.495H1347.07V479.465C1347.07 476.78 1346.62 474.499 1345.7 472.623C1344.78 470.711 1343.45 469.239 1341.72 468.209C1339.99 467.179 1337.88 466.664 1335.38 466.664C1332.88 466.664 1330.67 467.198 1328.76 468.265C1326.84 469.331 1325.35 470.895 1324.29 472.954C1323.22 475.014 1322.69 477.479 1322.69 480.348V515.495ZM1426.13 488.955C1424.88 488.992 1422.06 489.158 1417.68 489.452L1412.11 489.893C1408.65 490.188 1405.97 491.052 1404.06 492.487C1402.14 493.921 1401.19 495.926 1401.19 498.501C1401.19 500.156 1401.61 501.572 1402.46 502.749C1403.3 503.89 1404.5 504.773 1406.04 505.398C1407.62 506.023 1409.39 506.336 1411.34 506.336C1414.13 506.336 1416.58 505.784 1418.68 504.681C1420.81 503.54 1422.45 502.032 1423.59 500.156C1424.77 498.28 1425.35 496.22 1425.35 493.976L1425.24 474.83C1425.24 472.844 1424.84 471.152 1424.03 469.754C1423.22 468.356 1421.99 467.308 1420.33 466.609C1418.71 465.91 1416.73 465.561 1414.37 465.561C1411.36 465.561 1408.87 466.186 1406.93 467.437C1405.01 468.688 1403.78 470.416 1403.23 472.623H1389.54C1389.95 469.203 1391.2 466.149 1393.3 463.464C1395.43 460.742 1398.32 458.627 1401.96 457.119C1405.64 455.574 1409.9 454.802 1414.76 454.802C1419.03 454.802 1422.98 455.445 1426.62 456.733C1430.26 458.02 1433.28 460.209 1435.67 463.299C1438.06 466.352 1439.26 470.38 1439.26 475.382V515.495H1425.8V507.219H1425.35C1424.43 509.021 1423.18 510.621 1421.6 512.019C1420.06 513.417 1418.11 514.557 1415.75 515.44C1413.4 516.286 1410.71 516.709 1407.7 516.709C1403.84 516.709 1400.4 516.01 1397.38 514.612C1394.36 513.214 1391.97 511.155 1390.21 508.432C1388.48 505.71 1387.61 502.455 1387.61 498.666C1387.61 492.413 1389.69 487.925 1393.85 485.203C1398.01 482.445 1403.38 480.863 1409.96 480.458C1410.92 480.348 1414.36 480.164 1420.28 479.907L1426.02 479.686L1426.13 488.955ZM1482.45 515.495H1468.43V435.6H1482.45V515.495ZM1520.23 538.007C1517.47 538.007 1515.04 537.915 1512.94 537.731V526.42L1515.37 526.585C1516.33 526.622 1517.5 526.641 1518.9 526.641C1520.34 526.641 1521.51 526.512 1522.43 526.254C1523.39 525.997 1524.29 525.371 1525.14 524.378C1526.02 523.422 1526.81 521.951 1527.51 519.964L1528.78 516.764L1507.04 455.574H1521.94L1535.78 500.818H1536.45L1550.3 455.574H1565.3L1541.25 522.723C1539.48 527.652 1536.89 531.422 1533.47 534.034C1530.08 536.682 1525.67 538.007 1520.23 538.007ZM1619.75 466.389H1585.43V455.574H1619.75V466.389ZM1607.99 441.228V497.508C1607.99 499.31 1608.27 500.726 1608.82 501.756C1609.37 502.749 1610.11 503.448 1611.03 503.853C1611.99 504.221 1613.13 504.423 1614.45 504.46C1616.07 504.497 1618.11 504.405 1620.57 504.184V515.716C1618.29 516.12 1615.65 516.323 1612.63 516.323C1609.02 516.323 1605.81 515.716 1602.97 514.502C1600.14 513.251 1597.92 511.394 1596.3 508.929C1594.68 506.465 1593.89 503.411 1593.92 499.77V441.228H1607.99ZM1646.55 455.574H1660.56V515.495H1646.55V455.574ZM1653.5 447.022C1652.06 447.022 1650.72 446.691 1649.47 446.029C1648.22 445.33 1647.23 444.392 1646.49 443.215C1645.76 442.038 1645.39 440.769 1645.39 439.408C1645.39 438.01 1645.76 436.722 1646.49 435.545C1647.23 434.368 1648.22 433.449 1649.47 432.786C1650.72 432.124 1652.06 431.793 1653.5 431.793C1655.01 431.793 1656.39 432.124 1657.64 432.786C1658.89 433.449 1659.88 434.368 1660.62 435.545C1661.35 436.722 1661.72 438.01 1661.72 439.408C1661.72 440.769 1661.35 442.038 1660.62 443.215C1659.88 444.392 1658.89 445.33 1657.64 446.029C1656.39 446.691 1655.01 447.022 1653.5 447.022ZM1716.05 516.654C1710.2 516.654 1705.09 515.348 1700.71 512.736C1696.37 510.125 1693.04 506.483 1690.73 501.811C1688.45 497.14 1687.31 491.788 1687.31 485.755C1687.31 479.686 1688.48 474.315 1690.84 469.644C1693.19 464.936 1696.52 461.294 1700.82 458.719C1705.13 456.107 1710.17 454.802 1715.94 454.802C1720.76 454.802 1725.06 455.684 1728.85 457.45C1732.64 459.179 1735.64 461.68 1737.85 464.954C1740.09 468.191 1741.36 471.961 1741.65 476.265H1728.25C1727.88 474.279 1727.16 472.531 1726.09 471.023C1725.03 469.478 1723.67 468.265 1722.01 467.382C1720.36 466.499 1718.41 466.057 1716.16 466.057C1713.26 466.057 1710.7 466.848 1708.49 468.43C1706.29 469.975 1704.56 472.2 1703.31 475.106C1702.09 478.012 1701.49 481.47 1701.49 485.479C1701.49 489.526 1702.09 493.038 1703.31 496.018C1704.52 498.961 1706.23 501.223 1708.44 502.805C1710.65 504.386 1713.22 505.177 1716.16 505.177C1718.26 505.177 1720.14 504.791 1721.79 504.018C1723.48 503.209 1724.88 502.05 1725.98 500.542C1727.09 498.997 1727.84 497.177 1728.25 495.08H1741.65C1741.32 499.31 1740.07 503.044 1737.9 506.281C1735.73 509.518 1732.77 512.056 1729.02 513.895C1725.3 515.734 1720.98 516.654 1716.05 516.654ZM1802 472.623C1801.56 470.269 1800.42 468.448 1798.58 467.161C1796.74 465.874 1794.35 465.23 1791.41 465.23C1789.42 465.23 1787.64 465.524 1786.06 466.113C1784.47 466.701 1783.22 467.547 1782.3 468.651C1781.42 469.754 1780.98 470.987 1780.98 472.348C1780.94 473.929 1781.62 475.29 1783.02 476.431C1784.42 477.571 1786.59 478.472 1789.53 479.134L1799.74 481.341C1805.4 482.518 1809.62 484.449 1812.37 487.135C1815.17 489.82 1816.57 493.296 1816.57 497.563C1816.57 501.278 1815.52 504.589 1813.42 507.495C1811.33 510.364 1808.36 512.607 1804.54 514.226C1800.71 515.844 1796.21 516.654 1791.02 516.654C1785.98 516.654 1781.62 515.936 1777.94 514.502C1774.27 513.067 1771.36 510.989 1769.23 508.267C1767.09 505.508 1765.77 502.234 1765.25 498.446H1779.54C1780.06 500.947 1781.27 502.841 1783.19 504.129C1785.1 505.379 1787.69 506.005 1790.97 506.005C1793.21 506.005 1795.18 505.729 1796.87 505.177C1798.56 504.589 1799.87 503.761 1800.79 502.694C1801.71 501.591 1802.17 500.303 1802.17 498.832C1802.17 497.066 1801.47 495.613 1800.07 494.473C1798.67 493.333 1796.48 492.45 1793.5 491.825L1783.85 489.838C1778.29 488.661 1774.08 486.656 1771.21 483.824C1768.38 480.955 1766.96 477.405 1766.96 473.175C1766.96 469.497 1767.96 466.278 1769.94 463.519C1771.97 460.724 1774.8 458.572 1778.44 457.064C1782.12 455.556 1786.39 454.802 1791.24 454.802C1795.91 454.802 1800 455.537 1803.49 457.009C1807.02 458.443 1809.8 460.503 1811.82 463.188C1813.85 465.874 1815 469.019 1815.3 472.623H1802ZM883.029 550.6L906.81 608.645H907.748L931.528 550.6H949.129V630.495H935.336V575.485H934.563L912.438 630.219H902.12L879.939 575.374H879.277V630.495H865.428V550.6H883.029ZM1014.94 603.955C1013.69 603.992 1010.87 604.158 1006.5 604.452L1000.92 604.893C997.466 605.188 994.781 606.052 992.868 607.487C990.956 608.921 989.999 610.926 989.999 613.501C989.999 615.156 990.422 616.572 991.268 617.749C992.114 618.89 993.31 619.773 994.855 620.398C996.436 621.023 998.202 621.336 1000.15 621.336C1002.95 621.336 1005.39 620.784 1007.49 619.681C1009.62 618.54 1011.26 617.032 1012.4 615.156C1013.58 613.28 1014.17 611.22 1014.17 608.976L1014.06 589.83C1014.06 587.844 1013.65 586.152 1012.84 584.754C1012.03 583.356 1010.8 582.308 1009.15 581.609C1007.53 580.91 1005.54 580.561 1003.19 580.561C1000.17 580.561 997.687 581.186 995.738 582.437C993.825 583.688 992.593 585.416 992.041 587.623H978.357C978.762 584.203 980.012 581.149 982.109 578.464C984.243 575.742 987.13 573.627 990.772 572.119C994.45 570.574 998.717 569.802 1003.57 569.802C1007.84 569.802 1011.79 570.445 1015.44 571.733C1019.08 573.02 1022.09 575.209 1024.48 578.299C1026.88 581.352 1028.07 585.38 1028.07 590.382V630.495H1014.61V622.219H1014.17C1013.25 624.021 1012 625.621 1010.41 627.019C1008.87 628.417 1006.92 629.557 1004.57 630.44C1002.21 631.286 999.526 631.709 996.51 631.709C992.648 631.709 989.208 631.01 986.192 629.612C983.176 628.214 980.785 626.155 979.019 623.432C977.29 620.71 976.426 617.455 976.426 613.666C976.426 607.413 978.504 602.925 982.661 600.203C986.817 597.445 992.188 595.863 998.772 595.458C999.729 595.348 1003.17 595.164 1009.09 594.907L1014.83 594.686L1014.94 603.955ZM1083.34 631.654C1077.49 631.654 1072.38 630.348 1068 627.736C1063.66 625.125 1060.33 621.483 1058.02 616.811C1055.73 612.14 1054.59 606.788 1054.59 600.755C1054.59 594.686 1055.77 589.315 1058.13 584.644C1060.48 579.936 1063.81 576.294 1068.11 573.719C1072.42 571.107 1077.46 569.802 1083.23 569.802C1088.05 569.802 1092.35 570.684 1096.14 572.45C1099.93 574.179 1102.93 576.68 1105.14 579.954C1107.38 583.191 1108.65 586.961 1108.94 591.265H1095.54C1095.17 589.279 1094.45 587.531 1093.38 586.023C1092.32 584.478 1090.96 583.265 1089.3 582.382C1087.64 581.499 1085.7 581.057 1083.45 581.057C1080.55 581.057 1077.99 581.848 1075.78 583.43C1073.58 584.975 1071.85 587.2 1070.6 590.106C1069.38 593.012 1068.77 596.47 1068.77 600.479C1068.77 604.526 1069.38 608.038 1070.6 611.018C1071.81 613.961 1073.52 616.223 1075.73 617.805C1077.93 619.386 1080.51 620.177 1083.45 620.177C1085.55 620.177 1087.42 619.791 1089.08 619.018C1090.77 618.209 1092.17 617.05 1093.27 615.542C1094.38 613.997 1095.13 612.177 1095.54 610.08H1108.94C1108.61 614.31 1107.36 618.044 1105.19 621.281C1103.02 624.518 1100.06 627.056 1096.31 628.895C1092.59 630.734 1088.27 631.654 1083.34 631.654ZM1149.43 630.495H1135.41V550.6H1149.15V580.726H1149.81C1151.25 577.269 1153.45 574.584 1156.43 572.671C1159.41 570.758 1163.15 569.802 1167.63 569.802C1171.83 569.802 1175.47 570.684 1178.56 572.45C1181.65 574.179 1184.04 576.735 1185.73 580.12C1187.42 583.504 1188.27 587.568 1188.27 592.313V630.495H1174.26V594.465C1174.26 591.78 1173.78 589.481 1172.82 587.568C1171.9 585.655 1170.56 584.203 1168.79 583.209C1167.03 582.179 1164.89 581.664 1162.39 581.664C1159.85 581.664 1157.61 582.198 1155.66 583.265C1153.75 584.331 1152.22 585.913 1151.08 588.01C1149.98 590.07 1149.43 592.516 1149.43 595.348V630.495ZM1217.66 570.574H1231.68V630.495H1217.66V570.574ZM1224.62 562.022C1223.18 562.022 1221.84 561.691 1220.59 561.029C1219.34 560.33 1218.34 559.392 1217.61 558.215C1216.87 557.038 1216.5 555.769 1216.5 554.408C1216.5 553.01 1216.87 551.722 1217.61 550.545C1218.34 549.368 1219.34 548.449 1220.59 547.786C1221.84 547.124 1223.18 546.793 1224.62 546.793C1226.12 546.793 1227.5 547.124 1228.75 547.786C1230 548.449 1231 549.368 1231.73 550.545C1232.47 551.722 1232.84 553.01 1232.84 554.408C1232.84 555.769 1232.47 557.038 1231.73 558.215C1231 559.392 1230 560.33 1228.75 561.029C1227.5 561.691 1226.12 562.022 1224.62 562.022ZM1275.09 630.495H1261.07V570.574H1274.48V580.726H1275.14C1276.61 577.269 1278.86 574.584 1281.87 572.671C1284.89 570.758 1288.6 569.802 1293.02 569.802C1297.17 569.802 1300.78 570.684 1303.83 572.45C1306.92 574.179 1309.29 576.735 1310.95 580.12C1312.64 583.504 1313.49 587.568 1313.49 592.313V630.495H1299.47V594.465C1299.47 591.78 1299.01 589.499 1298.09 587.623C1297.17 585.711 1295.85 584.239 1294.12 583.209C1292.39 582.179 1290.28 581.664 1287.78 581.664C1285.28 581.664 1283.07 582.198 1281.16 583.265C1279.24 584.331 1277.75 585.895 1276.69 587.954C1275.62 590.014 1275.09 592.479 1275.09 595.348V630.495ZM1369.37 631.654C1363.44 631.654 1358.29 630.403 1353.92 627.902C1349.54 625.4 1346.16 621.832 1343.76 617.198C1341.41 612.563 1340.23 607.137 1340.23 600.921C1340.23 594.778 1341.41 589.352 1343.76 584.644C1346.16 579.899 1349.48 576.239 1353.75 573.664C1358.02 571.089 1362.98 569.802 1368.65 569.802C1373.76 569.802 1378.38 570.887 1382.5 573.057C1386.62 575.227 1389.89 578.593 1392.32 583.154C1394.75 587.679 1395.96 593.288 1395.96 599.983V604.397H1346.91V594.851H1382.5C1382.5 592.129 1381.93 589.702 1380.79 587.568C1379.65 585.435 1378.03 583.761 1375.93 582.547C1373.87 581.333 1371.5 580.726 1368.81 580.726C1365.94 580.726 1363.41 581.407 1361.2 582.768C1358.99 584.129 1357.26 585.968 1356.01 588.286C1354.8 590.566 1354.17 593.067 1354.14 595.789V603.955C1354.14 607.45 1354.76 610.466 1356.01 613.004C1357.3 615.506 1359.1 617.418 1361.42 618.743C1363.74 620.067 1366.44 620.729 1369.53 620.729C1371.52 620.729 1373.3 620.453 1374.88 619.901C1376.5 619.349 1377.88 618.632 1379.02 617.749C1380.16 616.83 1381.03 615.745 1381.61 614.494H1395.41C1394.56 617.915 1392.96 620.931 1390.61 623.543C1388.29 626.118 1385.31 628.122 1381.67 629.557C1378.03 630.955 1373.93 631.654 1369.37 631.654ZM1480.51 630.495H1466.17V550.6H1480.51V630.495ZM1524.64 630.495H1510.62V570.574H1524.03V580.726H1524.69C1526.17 577.269 1528.41 574.584 1531.43 572.671C1534.44 570.758 1538.16 569.802 1542.57 569.802C1546.73 569.802 1550.33 570.684 1553.39 572.45C1556.48 574.179 1558.85 576.735 1560.5 580.12C1562.2 583.504 1563.04 587.568 1563.04 592.313V630.495H1549.03V594.465C1549.03 591.78 1548.57 589.499 1547.65 587.623C1546.73 585.711 1545.4 584.239 1543.67 583.209C1541.95 582.179 1539.83 581.664 1537.33 581.664C1534.83 581.664 1532.62 582.198 1530.71 583.265C1528.8 584.331 1527.31 585.895 1526.24 587.954C1525.17 590.014 1524.64 592.479 1524.64 595.348V630.495ZM1622.17 581.389H1587.86V570.574H1622.17V581.389ZM1610.42 556.228V612.508C1610.42 614.31 1610.7 615.726 1611.25 616.756C1611.8 617.749 1612.54 618.448 1613.46 618.853C1614.41 619.221 1615.55 619.423 1616.88 619.46C1618.5 619.497 1620.54 619.405 1623 619.184V630.716C1620.72 631.12 1618.07 631.323 1615.06 631.323C1611.45 631.323 1608.23 630.716 1605.4 629.502C1602.57 628.251 1600.34 626.394 1598.72 623.929C1597.11 621.465 1596.32 618.411 1596.35 614.77V556.228H1610.42ZM1674.8 631.654C1668.87 631.654 1663.72 630.403 1659.35 627.902C1654.97 625.4 1651.59 621.832 1649.2 617.198C1646.84 612.563 1645.66 607.137 1645.66 600.921C1645.66 594.778 1646.84 589.352 1649.2 584.644C1651.59 579.899 1654.92 576.239 1659.18 573.664C1663.45 571.089 1668.41 569.802 1674.08 569.802C1679.19 569.802 1683.81 570.887 1687.93 573.057C1692.05 575.227 1695.32 578.593 1697.75 583.154C1700.18 587.679 1701.39 593.288 1701.39 599.983V604.397H1652.34V594.851H1687.93C1687.93 592.129 1687.36 589.702 1686.22 587.568C1685.08 585.435 1683.46 583.761 1681.36 582.547C1679.3 581.333 1676.93 580.726 1674.25 580.726C1671.38 580.726 1668.84 581.407 1666.63 582.768C1664.42 584.129 1662.7 585.968 1661.44 588.286C1660.23 590.566 1659.61 593.067 1659.57 595.789V603.955C1659.57 607.45 1660.19 610.466 1661.44 613.004C1662.73 615.506 1664.53 617.418 1666.85 618.743C1669.17 620.067 1671.87 620.729 1674.96 620.729C1676.95 620.729 1678.73 620.453 1680.31 619.901C1681.93 619.349 1683.31 618.632 1684.45 617.749C1685.59 616.83 1686.46 615.745 1687.05 614.494H1700.84C1699.99 617.915 1698.39 620.931 1696.04 623.543C1693.72 626.118 1690.74 628.122 1687.1 629.557C1683.46 630.955 1679.36 631.654 1674.8 631.654ZM1742.26 630.495H1728.25V550.6H1742.26V630.495ZM1785.67 630.495H1771.65V550.6H1785.67V630.495ZM1815.06 570.574H1829.08V630.495H1815.06V570.574ZM1822.01 562.022C1820.58 562.022 1819.24 561.691 1817.99 561.029C1816.74 560.33 1815.74 559.392 1815.01 558.215C1814.27 557.038 1813.9 555.769 1813.9 554.408C1813.9 553.01 1814.27 551.722 1815.01 550.545C1815.74 549.368 1816.74 548.449 1817.99 547.786C1819.24 547.124 1820.58 546.793 1822.01 546.793C1823.52 546.793 1824.9 547.124 1826.15 547.786C1827.4 548.449 1828.4 549.368 1829.13 550.545C1829.87 551.722 1830.24 553.01 1830.24 554.408C1830.24 555.769 1829.87 557.038 1829.13 558.215C1828.4 559.392 1827.4 560.33 1826.15 561.029C1824.9 561.691 1823.52 562.022 1822.01 562.022ZM1884.46 654.221C1879.27 654.221 1874.69 653.467 1870.72 651.958C1866.78 650.487 1863.69 648.372 1861.45 645.613C1859.21 642.891 1857.9 639.636 1857.53 635.847H1871.55C1872.1 638.422 1873.52 640.353 1875.8 641.641C1878.08 642.928 1881.04 643.572 1884.68 643.572C1889.13 643.572 1892.57 642.56 1895 640.537C1897.42 638.551 1898.64 635.424 1898.64 631.157V619.736H1897.92C1897 621.612 1895.86 623.249 1894.5 624.646C1893.18 626.007 1891.36 627.184 1889.04 628.178C1886.72 629.171 1883.94 629.667 1880.71 629.667C1876 629.667 1871.77 628.545 1868.02 626.302C1864.3 624.021 1861.36 620.655 1859.19 616.204C1857.02 611.717 1855.93 606.31 1855.93 599.983C1855.93 593.619 1857.02 588.175 1859.19 583.651C1861.36 579.09 1864.32 575.65 1868.07 573.333C1871.82 570.979 1876.03 569.802 1880.71 569.802C1884.02 569.802 1886.81 570.353 1889.09 571.457C1891.37 572.524 1893.12 573.756 1894.33 575.154C1895.55 576.515 1896.76 578.28 1897.98 580.451H1898.69V570.574H1912.54V631.488C1912.54 636.417 1911.35 640.592 1908.96 644.013C1906.6 647.434 1903.31 649.99 1899.08 651.682C1894.85 653.375 1889.98 654.221 1884.46 654.221ZM1884.51 618.577C1887.53 618.577 1890.1 617.841 1892.24 616.37C1894.37 614.899 1895.99 612.802 1897.09 610.08C1898.23 607.321 1898.8 604.029 1898.8 600.203C1898.8 596.378 1898.23 593.049 1897.09 590.217C1895.99 587.384 1894.37 585.196 1892.24 583.651C1890.14 582.106 1887.57 581.333 1884.51 581.333C1881.5 581.333 1878.92 582.143 1876.79 583.761C1874.66 585.343 1873.04 587.568 1871.93 590.437C1870.83 593.27 1870.28 596.525 1870.28 600.203C1870.28 603.919 1870.83 607.156 1871.93 609.914C1873.04 612.673 1874.66 614.807 1876.79 616.315C1878.92 617.823 1881.5 618.577 1884.51 618.577ZM1968.42 631.654C1962.5 631.654 1957.35 630.403 1952.97 627.902C1948.59 625.4 1945.21 621.832 1942.82 617.198C1940.46 612.563 1939.29 607.137 1939.29 600.921C1939.29 594.778 1940.46 589.352 1942.82 584.644C1945.21 579.899 1948.54 576.239 1952.81 573.664C1957.07 571.089 1962.04 569.802 1967.7 569.802C1972.82 569.802 1977.43 570.887 1981.55 573.057C1985.67 575.227 1988.95 578.593 1991.37 583.154C1993.8 587.679 1995.02 593.288 1995.02 599.983V604.397H1945.96V594.851H1981.55C1981.55 592.129 1980.98 589.702 1979.84 587.568C1978.7 585.435 1977.08 583.761 1974.99 582.547C1972.93 581.333 1970.55 580.726 1967.87 580.726C1965 580.726 1962.46 581.407 1960.25 582.768C1958.05 584.129 1956.32 585.968 1955.07 588.286C1953.85 590.566 1953.23 593.067 1953.19 595.789V603.955C1953.19 607.45 1953.82 610.466 1955.07 613.004C1956.36 615.506 1958.16 617.418 1960.48 618.743C1962.79 620.067 1965.5 620.729 1968.59 620.729C1970.57 620.729 1972.36 620.453 1973.94 619.901C1975.56 619.349 1976.94 618.632 1978.08 617.749C1979.22 616.83 1980.08 615.745 1980.67 614.494H1994.46C1993.62 617.915 1992.02 620.931 1989.66 623.543C1987.35 626.118 1984.37 628.122 1980.72 629.557C1977.08 630.955 1972.98 631.654 1968.42 631.654ZM2035.88 630.495H2021.87V570.574H2035.28V580.726H2035.94C2037.41 577.269 2039.66 574.584 2042.67 572.671C2045.69 570.758 2049.4 569.802 2053.82 569.802C2057.97 569.802 2061.58 570.684 2064.63 572.45C2067.72 574.179 2070.09 576.735 2071.75 580.12C2073.44 583.504 2074.29 587.568 2074.29 592.313V630.495H2060.27V594.465C2060.27 591.78 2059.81 589.499 2058.89 587.623C2057.97 585.711 2056.65 584.239 2054.92 583.209C2053.19 582.179 2051.08 581.664 2048.58 581.664C2046.07 581.664 2043.87 582.198 2041.95 583.265C2040.04 584.331 2038.55 585.895 2037.48 587.954C2036.42 590.014 2035.88 592.479 2035.88 595.348V630.495ZM2129.78 631.654C2123.93 631.654 2118.82 630.348 2114.44 627.736C2110.1 625.125 2106.77 621.483 2104.45 616.811C2102.17 612.14 2101.03 606.788 2101.03 600.755C2101.03 594.686 2102.21 589.315 2104.56 584.644C2106.92 579.936 2110.25 576.294 2114.55 573.719C2118.85 571.107 2123.89 569.802 2129.67 569.802C2134.49 569.802 2138.79 570.684 2142.58 572.45C2146.37 574.179 2149.37 576.68 2151.57 579.954C2153.82 583.191 2155.09 586.961 2155.38 591.265H2141.97C2141.6 589.279 2140.89 587.531 2139.82 586.023C2138.75 584.478 2137.39 583.265 2135.74 582.382C2134.08 581.499 2132.13 581.057 2129.89 581.057C2126.98 581.057 2124.43 581.848 2122.22 583.43C2120.01 584.975 2118.28 587.2 2117.03 590.106C2115.82 593.012 2115.21 596.47 2115.21 600.479C2115.21 604.526 2115.82 608.038 2117.03 611.018C2118.25 613.961 2119.96 616.223 2122.16 617.805C2124.37 619.386 2126.95 620.177 2129.89 620.177C2131.99 620.177 2133.86 619.791 2135.52 619.018C2137.21 618.209 2138.61 617.05 2139.71 615.542C2140.81 613.997 2141.57 612.177 2141.97 610.08H2155.38C2155.05 614.31 2153.8 618.044 2151.63 621.281C2149.46 624.518 2146.5 627.056 2142.74 628.895C2139.03 630.734 2134.71 631.654 2129.78 631.654ZM2208.33 631.654C2202.41 631.654 2197.26 630.403 2192.88 627.902C2188.51 625.4 2185.12 621.832 2182.73 617.198C2180.38 612.563 2179.2 607.137 2179.2 600.921C2179.2 594.778 2180.38 589.352 2182.73 584.644C2185.12 579.899 2188.45 576.239 2192.72 573.664C2196.99 571.089 2201.95 569.802 2207.62 569.802C2212.73 569.802 2217.35 570.887 2221.47 573.057C2225.59 575.227 2228.86 578.593 2231.29 583.154C2233.71 587.679 2234.93 593.288 2234.93 599.983V604.397H2185.88V594.851H2221.47C2221.47 592.129 2220.9 589.702 2219.75 587.568C2218.61 585.435 2217 583.761 2214.9 582.547C2212.84 581.333 2210.47 580.726 2207.78 580.726C2204.91 580.726 2202.37 581.407 2200.17 582.768C2197.96 584.129 2196.23 585.968 2194.98 588.286C2193.77 590.566 2193.14 593.067 2193.1 595.789V603.955C2193.1 607.45 2193.73 610.466 2194.98 613.004C2196.27 615.506 2198.07 617.418 2200.39 618.743C2202.71 620.067 2205.41 620.729 2208.5 620.729C2210.49 620.729 2212.27 620.453 2213.85 619.901C2215.47 619.349 2216.85 618.632 2217.99 617.749C2219.13 616.83 2219.99 615.745 2220.58 614.494H2234.38C2233.53 617.915 2231.93 620.931 2229.58 623.543C2227.26 626.118 2224.28 628.122 2220.64 629.557C2217 630.955 2212.89 631.654 2208.33 631.654Z" fill="#89C5D5"/>
</svg>
